{
	"asset":{
		"generator":"Khronos glTF Blender I/O v5.1.8",
		"version":"2.0"
	},
	"extensionsUsed":[
		"NOT_BEVY_EXTENSION",
		"BEVY_skein"
	],
	"scene":3,
	"scenes":[
		{
			"name":"Coin",
			"nodes":[
				0
			]
		},
		{
			"name":"Eye",
			"nodes":[
				1
			]
		},
		{
			"name":"Scene",
			"nodes":[
				2,
				3,
				5,
				6
			]
		},
		{
			"name":"SpawnCircleColumn",
			"nodes":[
				7
			]
		}
	],
	"nodes":[
		{
			"mesh":0,
			"name":"Cylinder"
		},
		{
			"extensions":{
				"BEVY_skein":{
					"components":[
						{
							"api::Eyeball":{}
						}
					]
				}
			},
			"mesh":1,
			"name":"EyeObj"
		},
		{
			"mesh":2,
			"name":"CubeObj",
			"translation":[
				0,
				0.5,
				0
			]
		},
		{
			"mesh":3,
			"name":"Plane"
		},
		{
			"extensions":{
				"BEVY_skein":{
					"components":[
						{
							"api::Eyeball":{}
						}
					]
				}
			},
			"mesh":1,
			"name":"EyeObj"
		},
		{
			"children":[
				4
			],
			"name":"EyeCollection",
			"translation":[
				0,
				0.5,
				-2
			]
		},
		{
			"extensions":{
				"BEVY_skein":{
					"components":[
						{
							"api::PlayerCharacter":{}
						},
						{
							"api::Detectable":{}
						}
					]
				}
			},
			"mesh":4,
			"name":"SuzanneObj",
			"translation":[
				0,
				0.5,
				6
			]
		},
		{
			"mesh":5,
			"name":"Cylinder.001"
		}
	],
	"materials":[
		{
			"doubleSided":true,
			"name":"Coin",
			"pbrMetallicRoughness":{
				"baseColorFactor":[
					0.9559555053710938,
					0.603837251663208,
					0.0074988161213696,
					1
				],
				"metallicFactor":0,
				"roughnessFactor":0.5
			}
		},
		{
			"doubleSided":true,
			"emissiveTexture":{
				"index":0
			},
			"name":"Material.001",
			"pbrMetallicRoughness":{
				"baseColorTexture":{
					"index":1
				},
				"metallicFactor":0,
				"metallicRoughnessTexture":{
					"index":2
				}
			}
		},
		{
			"doubleSided":true,
			"name":"Material",
			"pbrMetallicRoughness":{
				"baseColorFactor":[
					0.800000011920929,
					0.800000011920929,
					0.800000011920929,
					1
				],
				"metallicFactor":0,
				"roughnessFactor":0.5
			}
		},
		{
			"doubleSided":true,
			"name":"Floor",
			"pbrMetallicRoughness":{
				"baseColorFactor":[
					0.5972059965133667,
					0.6654009819030762,
					0.7529511451721191,
					1
				],
				"metallicFactor":0,
				"roughnessFactor":0.5
			}
		},
		{
			"doubleSided":true,
			"extensions":{
				"BEVY_skein":{
					"components":[
						{
							"api::CylinderMaterial":{}
						},
						{
							"bevy_light::NotShadowCaster":{}
						},
						{
							"bevy_light::NotShadowReceiver":{}
						}
					]
				}
			},
			"name":"CylinderMaterial",
			"pbrMetallicRoughness":{
				"baseColorFactor":[
					0.800000011920929,
					0.800000011920929,
					0.800000011920929,
					1
				],
				"metallicFactor":0,
				"roughnessFactor":0.5
			}
		}
	],
	"meshes":[
		{
			"extensions":{
				"NOT_BEVY_EXTENSION":{
					"components":"Here"
				}
			},
			"extras":{
				"TESTING_OUTPUT":{
					"some":"Thing"
				}
			},
			"name":"Cylinder.001",
			"primitives":[
				{
					"attributes":{
						"POSITION":0,
						"NORMAL":1,
						"TEXCOORD_0":2,
						"TANGENT":3
					},
					"indices":4,
					"material":0
				}
			]
		},
		{
			"extensions":{
				"NOT_BEVY_EXTENSION":{
					"components":"Here"
				}
			},
			"extras":{
				"TESTING_OUTPUT":{
					"some":"Thing"
				}
			},
			"name":"Eye",
			"primitives":[
				{
					"attributes":{
						"POSITION":5,
						"NORMAL":6,
						"TEXCOORD_0":7,
						"TANGENT":8
					},
					"indices":9,
					"material":1
				}
			]
		},
		{
			"extensions":{
				"NOT_BEVY_EXTENSION":{
					"components":"Here"
				}
			},
			"extras":{
				"TESTING_OUTPUT":{
					"some":"Thing"
				}
			},
			"name":"Cube",
			"primitives":[
				{
					"attributes":{
						"POSITION":10,
						"NORMAL":11,
						"TEXCOORD_0":12,
						"TANGENT":13
					},
					"indices":14,
					"material":2
				}
			]
		},
		{
			"extensions":{
				"NOT_BEVY_EXTENSION":{
					"components":"Here"
				}
			},
			"extras":{
				"TESTING_OUTPUT":{
					"some":"Thing"
				}
			},
			"name":"Floor",
			"primitives":[
				{
					"attributes":{
						"POSITION":15,
						"NORMAL":16,
						"TEXCOORD_0":17,
						"TANGENT":18
					},
					"indices":19,
					"material":3
				}
			]
		},
		{
			"extensions":{
				"NOT_BEVY_EXTENSION":{
					"components":"Here"
				}
			},
			"extras":{
				"TESTING_OUTPUT":{
					"some":"Thing"
				}
			},
			"name":"Suzanne",
			"primitives":[
				{
					"attributes":{
						"POSITION":20,
						"NORMAL":21,
						"TEXCOORD_0":22,
						"TANGENT":23
					},
					"indices":24
				}
			]
		},
		{
			"extensions":{
				"NOT_BEVY_EXTENSION":{
					"components":"Here"
				}
			},
			"extras":{
				"TESTING_OUTPUT":{
					"some":"Thing"
				}
			},
			"name":"Cylinder",
			"primitives":[
				{
					"attributes":{
						"POSITION":25,
						"NORMAL":26,
						"TEXCOORD_0":27,
						"TANGENT":28
					},
					"indices":29,
					"material":4
				}
			]
		}
	],
	"textures":[
		{
			"sampler":0,
			"source":0
		},
		{
			"sampler":0,
			"source":1
		},
		{
			"sampler":0,
			"source":2
		}
	],
	"images":[
		{
			"mimeType":"image/png",
			"name":"DefaultMaterial_Emission",
			"uri":"DefaultMaterial_Emission.png"
		},
		{
			"mimeType":"image/png",
			"name":"DefaultMaterial_BaseColor",
			"uri":"DefaultMaterial_BaseColor.png"
		},
		{
			"mimeType":"image/png",
			"name":"DefaultMaterial_Roughness",
			"uri":"DefaultMaterial_Roughness.png"
		}
	],
	"accessors":[
		{
			"bufferView":0,
			"componentType":5126,
			"count":459,
			"max":[
				1,
				0.1000000461935997,
				1
			],
			"min":[
				-1,
				-0.1000000461935997,
				-1
			],
			"type":"VEC3"
		},
		{
			"bufferView":1,
			"componentType":5126,
			"count":459,
			"type":"VEC3"
		},
		{
			"bufferView":2,
			"componentType":5126,
			"count":459,
			"type":"VEC2"
		},
		{
			"bufferView":3,
			"componentType":5126,
			"count":459,
			"type":"VEC4"
		},
		{
			"bufferView":4,
			"componentType":5123,
			"count":960,
			"type":"SCALAR"
		},
		{
			"bufferView":5,
			"componentType":5126,
			"count":441,
			"max":[
				0.5,
				0.5,
				0.5000001192092896
			],
			"min":[
				-0.5,
				-0.4999999701976776,
				-0.4999999403953552
			],
			"type":"VEC3"
		},
		{
			"bufferView":6,
			"componentType":5126,
			"count":441,
			"type":"VEC3"
		},
		{
			"bufferView":7,
			"componentType":5126,
			"count":441,
			"type":"VEC2"
		},
		{
			"bufferView":8,
			"componentType":5126,
			"count":441,
			"type":"VEC4"
		},
		{
			"bufferView":9,
			"componentType":5123,
			"count":2304,
			"type":"SCALAR"
		},
		{
			"bufferView":10,
			"componentType":5126,
			"count":24,
			"max":[
				0.5,
				0.5,
				0.5
			],
			"min":[
				-0.5,
				-0.5,
				-0.5
			],
			"type":"VEC3"
		},
		{
			"bufferView":11,
			"componentType":5126,
			"count":24,
			"type":"VEC3"
		},
		{
			"bufferView":12,
			"componentType":5126,
			"count":24,
			"type":"VEC2"
		},
		{
			"bufferView":13,
			"componentType":5126,
			"count":24,
			"type":"VEC4"
		},
		{
			"bufferView":14,
			"componentType":5123,
			"count":36,
			"type":"SCALAR"
		},
		{
			"bufferView":15,
			"componentType":5126,
			"count":4,
			"max":[
				10,
				0,
				10
			],
			"min":[
				-10,
				0,
				-10
			],
			"type":"VEC3"
		},
		{
			"bufferView":16,
			"componentType":5126,
			"count":4,
			"type":"VEC3"
		},
		{
			"bufferView":17,
			"componentType":5126,
			"count":4,
			"type":"VEC2"
		},
		{
			"bufferView":18,
			"componentType":5126,
			"count":4,
			"type":"VEC4"
		},
		{
			"bufferView":19,
			"componentType":5123,
			"count":6,
			"type":"SCALAR"
		},
		{
			"bufferView":20,
			"componentType":5126,
			"count":1968,
			"max":[
				0.68359375,
				0.5262265801429749,
				0.5891573429107666
			],
			"min":[
				-0.68359375,
				-0.45814841985702515,
				-0.2624051570892334
			],
			"type":"VEC3"
		},
		{
			"bufferView":21,
			"componentType":5126,
			"count":1968,
			"type":"VEC3"
		},
		{
			"bufferView":22,
			"componentType":5126,
			"count":1968,
			"type":"VEC2"
		},
		{
			"bufferView":23,
			"componentType":5126,
			"count":1968,
			"type":"VEC4"
		},
		{
			"bufferView":24,
			"componentType":5123,
			"count":2904,
			"type":"SCALAR"
		},
		{
			"bufferView":25,
			"componentType":5126,
			"count":128,
			"max":[
				1,
				2,
				1
			],
			"min":[
				-1,
				0,
				-1
			],
			"type":"VEC3"
		},
		{
			"bufferView":26,
			"componentType":5126,
			"count":128,
			"type":"VEC3"
		},
		{
			"bufferView":27,
			"componentType":5126,
			"count":128,
			"type":"VEC2"
		},
		{
			"bufferView":28,
			"componentType":5126,
			"count":128,
			"type":"VEC4"
		},
		{
			"bufferView":29,
			"componentType":5123,
			"count":192,
			"type":"SCALAR"
		}
	],
	"bufferViews":[
		{
			"buffer":0,
			"byteLength":5508,
			"byteOffset":0,
			"target":34962
		},
		{
			"buffer":0,
			"byteLength":5508,
			"byteOffset":5508,
			"target":34962
		},
		{
			"buffer":0,
			"byteLength":3672,
			"byteOffset":11016,
			"target":34962
		},
		{
			"buffer":0,
			"byteLength":7344,
			"byteOffset":14688,
			"target":34962
		},
		{
			"buffer":0,
			"byteLength":1920,
			"byteOffset":22032,
			"target":34963
		},
		{
			"buffer":0,
			"byteLength":5292,
			"byteOffset":23952,
			"target":34962
		},
		{
			"buffer":0,
			"byteLength":5292,
			"byteOffset":29244,
			"target":34962
		},
		{
			"buffer":0,
			"byteLength":3528,
			"byteOffset":34536,
			"target":34962
		},
		{
			"buffer":0,
			"byteLength":7056,
			"byteOffset":38064,
			"target":34962
		},
		{
			"buffer":0,
			"byteLength":4608,
			"byteOffset":45120,
			"target":34963
		},
		{
			"buffer":0,
			"byteLength":288,
			"byteOffset":49728,
			"target":34962
		},
		{
			"buffer":0,
			"byteLength":288,
			"byteOffset":50016,
			"target":34962
		},
		{
			"buffer":0,
			"byteLength":192,
			"byteOffset":50304,
			"target":34962
		},
		{
			"buffer":0,
			"byteLength":384,
			"byteOffset":50496,
			"target":34962
		},
		{
			"buffer":0,
			"byteLength":72,
			"byteOffset":50880,
			"target":34963
		},
		{
			"buffer":0,
			"byteLength":48,
			"byteOffset":50952,
			"target":34962
		},
		{
			"buffer":0,
			"byteLength":48,
			"byteOffset":51000,
			"target":34962
		},
		{
			"buffer":0,
			"byteLength":32,
			"byteOffset":51048,
			"target":34962
		},
		{
			"buffer":0,
			"byteLength":64,
			"byteOffset":51080,
			"target":34962
		},
		{
			"buffer":0,
			"byteLength":12,
			"byteOffset":51144,
			"target":34963
		},
		{
			"buffer":0,
			"byteLength":23616,
			"byteOffset":51156,
			"target":34962
		},
		{
			"buffer":0,
			"byteLength":23616,
			"byteOffset":74772,
			"target":34962
		},
		{
			"buffer":0,
			"byteLength":15744,
			"byteOffset":98388,
			"target":34962
		},
		{
			"buffer":0,
			"byteLength":31488,
			"byteOffset":114132,
			"target":34962
		},
		{
			"buffer":0,
			"byteLength":5808,
			"byteOffset":145620,
			"target":34963
		},
		{
			"buffer":0,
			"byteLength":1536,
			"byteOffset":151428,
			"target":34962
		},
		{
			"buffer":0,
			"byteLength":1536,
			"byteOffset":152964,
			"target":34962
		},
		{
			"buffer":0,
			"byteLength":1024,
			"byteOffset":154500,
			"target":34962
		},
		{
			"buffer":0,
			"byteLength":2048,
			"byteOffset":155524,
			"target":34962
		},
		{
			"buffer":0,
			"byteLength":384,
			"byteOffset":157572,
			"target":34963
		}
	],
	"samplers":[
		{
			"magFilter":9729,
			"minFilter":9987
		}
	],
	"buffers":[
		{
			"byteLength":157956,
			"uri":"misc.bin"
		}
	]
}
