{
	"asset":{
		"generator":"Khronos glTF Blender I/O v5.1.8",
		"version":"2.0"
	},
	"extensionsUsed":[
		"NOT_BEVY_EXTENSION",
		"BEVY_skein"
	],
	"scene":3,
	"scenes":[
		{
			"name":"Coin",
			"nodes":[
				0
			]
		},
		{
			"name":"Eye",
			"nodes":[
				1
			]
		},
		{
			"name":"flock-sphere",
			"nodes":[
				2
			]
		},
		{
			"name":"gem-rock",
			"nodes":[
				3,
				4,
				5,
				6
			]
		},
		{
			"name":"Scene",
			"nodes":[
				7,
				8,
				9,
				10
			]
		},
		{
			"name":"SpawnCircleColumn",
			"nodes":[
				11
			]
		}
	],
	"nodes":[
		{
			"mesh":0,
			"name":"Cylinder"
		},
		{
			"mesh":1,
			"name":"EyeObj"
		},
		{
			"mesh":2,
			"name":"Sphere"
		},
		{
			"mesh":3,
			"name":"gem"
		},
		{
			"mesh":4,
			"name":"gem-holder"
		},
		{
			"mesh":5,
			"name":"energy-interior",
			"translation":[
				0,
				0.5229341983795166,
				0
			]
		},
		{
			"mesh":6,
			"name":"Cylinder.002",
			"translation":[
				0,
				0.8175949454307556,
				0
			]
		},
		{
			"mesh":7,
			"name":"CubeObj",
			"translation":[
				0,
				0.5,
				0
			]
		},
		{
			"mesh":8,
			"name":"Plane"
		},
		{
			"extensions":{
				"BEVY_skein":{
					"components":[
						{
							"api::PlayerCharacter":{}
						},
						{
							"api::Detectable":{}
						}
					]
				}
			},
			"mesh":9,
			"name":"SuzanneObj",
			"translation":[
				0,
				0.5,
				6
			]
		},
		{
			"extensions":{
				"BEVY_skein":{
					"components":[
						{
							"bevy_camera::visibility::Visibility":"Hidden"
						}
					]
				}
			},
			"mesh":10,
			"name":"NavMesh"
		},
		{
			"mesh":11,
			"name":"Cylinder.001"
		}
	],
	"materials":[
		{
			"doubleSided":true,
			"name":"Coin",
			"pbrMetallicRoughness":{
				"baseColorFactor":[
					0.9559555053710938,
					0.603837251663208,
					0.0074988161213696,
					1
				],
				"metallicFactor":0,
				"roughnessFactor":0.5
			}
		},
		{
			"doubleSided":true,
			"emissiveTexture":{
				"index":0
			},
			"name":"Material.001",
			"pbrMetallicRoughness":{
				"baseColorTexture":{
					"index":1
				},
				"metallicFactor":0,
				"metallicRoughnessTexture":{
					"index":2
				}
			}
		},
		{
			"doubleSided":true,
			"emissiveTexture":{
				"index":3
			},
			"name":"FlockSphereMaterial",
			"normalTexture":{
				"index":4
			},
			"pbrMetallicRoughness":{
				"baseColorTexture":{
					"index":5
				},
				"metallicRoughnessTexture":{
					"index":6
				}
			}
		},
		{
			"alphaMode":"BLEND",
			"doubleSided":true,
			"emissiveFactor":[
				1,
				1,
				1
			],
			"emissiveTexture":{
				"index":7
			},
			"extensions":{
				"BEVY_skein":{
					"components":[
						{
							"api::CrystalMaterial":{}
						}
					]
				}
			},
			"name":"Gemstone",
			"normalTexture":{
				"index":8
			},
			"pbrMetallicRoughness":{
				"baseColorTexture":{
					"index":9
				},
				"metallicRoughnessTexture":{
					"index":10
				}
			}
		},
		{
			"doubleSided":true,
			"emissiveTexture":{
				"index":11
			},
			"name":"stone",
			"normalTexture":{
				"index":12
			},
			"pbrMetallicRoughness":{
				"baseColorTexture":{
					"index":13
				},
				"metallicRoughnessTexture":{
					"index":14
				}
			}
		},
		{
			"doubleSided":true,
			"extensions":{
				"BEVY_skein":{
					"components":[
						{
							"api::EnergyMaterial":{}
						}
					]
				}
			},
			"name":"energy-inner",
			"pbrMetallicRoughness":{
				"baseColorFactor":[
					0.03954574465751648,
					0.5088658332824707,
					0.938669741153717,
					1
				],
				"metallicFactor":0,
				"roughnessFactor":0.5
			}
		},
		{
			"doubleSided":true,
			"name":"Material",
			"pbrMetallicRoughness":{
				"baseColorFactor":[
					0.800000011920929,
					0.800000011920929,
					0.800000011920929,
					1
				],
				"metallicFactor":0,
				"roughnessFactor":0.5
			}
		},
		{
			"doubleSided":true,
			"name":"Floor",
			"pbrMetallicRoughness":{
				"baseColorFactor":[
					0.5972059965133667,
					0.6654009819030762,
					0.7529511451721191,
					1
				],
				"metallicFactor":0,
				"roughnessFactor":0.5
			}
		},
		{
			"doubleSided":true,
			"extensions":{
				"BEVY_skein":{
					"components":[
						{
							"api::CylinderMaterial":{}
						},
						{
							"bevy_light::NotShadowCaster":{}
						},
						{
							"bevy_light::NotShadowReceiver":{}
						}
					]
				}
			},
			"name":"CylinderMaterial",
			"pbrMetallicRoughness":{
				"baseColorFactor":[
					0.800000011920929,
					0.800000011920929,
					0.800000011920929,
					1
				],
				"metallicFactor":0,
				"roughnessFactor":0.5
			}
		}
	],
	"meshes":[
		{
			"extensions":{
				"NOT_BEVY_EXTENSION":{
					"components":"Here"
				}
			},
			"extras":{
				"TESTING_OUTPUT":{
					"some":"Thing"
				}
			},
			"name":"Cylinder.001",
			"primitives":[
				{
					"attributes":{
						"POSITION":0,
						"NORMAL":1,
						"TEXCOORD_0":2,
						"TANGENT":3
					},
					"indices":4,
					"material":0
				}
			]
		},
		{
			"extensions":{
				"NOT_BEVY_EXTENSION":{
					"components":"Here"
				}
			},
			"extras":{
				"TESTING_OUTPUT":{
					"some":"Thing"
				}
			},
			"name":"Eye",
			"primitives":[
				{
					"attributes":{
						"POSITION":5,
						"NORMAL":6,
						"TEXCOORD_0":7,
						"TANGENT":8
					},
					"indices":9,
					"material":1
				}
			]
		},
		{
			"extensions":{
				"NOT_BEVY_EXTENSION":{
					"components":"Here"
				}
			},
			"extras":{
				"TESTING_OUTPUT":{
					"some":"Thing"
				}
			},
			"name":"Sphere",
			"primitives":[
				{
					"attributes":{
						"POSITION":10,
						"NORMAL":11,
						"TEXCOORD_0":12,
						"TANGENT":13
					},
					"indices":14,
					"material":2
				}
			]
		},
		{
			"extensions":{
				"NOT_BEVY_EXTENSION":{
					"components":"Here"
				}
			},
			"extras":{
				"TESTING_OUTPUT":{
					"some":"Thing"
				}
			},
			"name":"gem",
			"primitives":[
				{
					"attributes":{
						"POSITION":15,
						"NORMAL":16,
						"TEXCOORD_0":17,
						"TANGENT":18
					},
					"indices":19,
					"material":3
				}
			]
		},
		{
			"extensions":{
				"NOT_BEVY_EXTENSION":{
					"components":"Here"
				}
			},
			"extras":{
				"TESTING_OUTPUT":{
					"some":"Thing"
				}
			},
			"name":"gem-holder",
			"primitives":[
				{
					"attributes":{
						"POSITION":20,
						"NORMAL":21,
						"TEXCOORD_0":22,
						"TANGENT":23
					},
					"indices":24,
					"material":4
				}
			]
		},
		{
			"extensions":{
				"NOT_BEVY_EXTENSION":{
					"components":"Here"
				}
			},
			"extras":{
				"TESTING_OUTPUT":{
					"some":"Thing"
				}
			},
			"name":"energy-interior",
			"primitives":[
				{
					"attributes":{
						"POSITION":25,
						"NORMAL":26,
						"TEXCOORD_0":27,
						"TANGENT":28
					},
					"indices":29,
					"material":5
				}
			]
		},
		{
			"extensions":{
				"NOT_BEVY_EXTENSION":{
					"components":"Here"
				}
			},
			"extras":{
				"TESTING_OUTPUT":{
					"some":"Thing"
				}
			},
			"name":"Cylinder.002",
			"primitives":[
				{
					"attributes":{
						"POSITION":30,
						"NORMAL":31,
						"TEXCOORD_0":32,
						"TANGENT":33
					},
					"indices":34,
					"material":5
				}
			]
		},
		{
			"extensions":{
				"NOT_BEVY_EXTENSION":{
					"components":"Here"
				}
			},
			"extras":{
				"TESTING_OUTPUT":{
					"some":"Thing"
				}
			},
			"name":"Cube",
			"primitives":[
				{
					"attributes":{
						"POSITION":35,
						"NORMAL":36,
						"TEXCOORD_0":37,
						"TANGENT":38
					},
					"indices":39,
					"material":6
				}
			]
		},
		{
			"extensions":{
				"NOT_BEVY_EXTENSION":{
					"components":"Here"
				}
			},
			"extras":{
				"TESTING_OUTPUT":{
					"some":"Thing"
				}
			},
			"name":"Floor",
			"primitives":[
				{
					"attributes":{
						"POSITION":40,
						"NORMAL":41,
						"TEXCOORD_0":42,
						"TANGENT":43
					},
					"indices":44,
					"material":7
				}
			]
		},
		{
			"extensions":{
				"NOT_BEVY_EXTENSION":{
					"components":"Here"
				}
			},
			"extras":{
				"TESTING_OUTPUT":{
					"some":"Thing"
				}
			},
			"name":"Suzanne",
			"primitives":[
				{
					"attributes":{
						"POSITION":45,
						"NORMAL":46,
						"TEXCOORD_0":47,
						"TANGENT":48
					},
					"indices":49
				}
			]
		},
		{
			"extensions":{
				"BEVY_skein":{
					"components":[
						{
							"api::NavMesh":{}
						}
					]
				},
				"NOT_BEVY_EXTENSION":{
					"components":"Here"
				}
			},
			"extras":{
				"TESTING_OUTPUT":{
					"some":"Thing"
				}
			},
			"name":"NavMesh",
			"primitives":[
				{
					"attributes":{
						"POSITION":50,
						"NORMAL":51,
						"TEXCOORD_0":52,
						"TANGENT":53
					},
					"indices":44
				}
			]
		},
		{
			"extensions":{
				"NOT_BEVY_EXTENSION":{
					"components":"Here"
				}
			},
			"extras":{
				"TESTING_OUTPUT":{
					"some":"Thing"
				}
			},
			"name":"Cylinder",
			"primitives":[
				{
					"attributes":{
						"POSITION":54,
						"NORMAL":55,
						"TEXCOORD_0":56,
						"TANGENT":57
					},
					"indices":34,
					"material":8
				}
			]
		}
	],
	"textures":[
		{
			"sampler":0,
			"source":0
		},
		{
			"sampler":0,
			"source":1
		},
		{
			"sampler":0,
			"source":2
		},
		{
			"sampler":0,
			"source":3
		},
		{
			"sampler":0,
			"source":4
		},
		{
			"sampler":0,
			"source":5
		},
		{
			"sampler":0,
			"source":6
		},
		{
			"sampler":0,
			"source":7
		},
		{
			"sampler":0,
			"source":8
		},
		{
			"sampler":0,
			"source":9
		},
		{
			"sampler":0,
			"source":10
		},
		{
			"sampler":0,
			"source":11
		},
		{
			"sampler":0,
			"source":12
		},
		{
			"sampler":0,
			"source":13
		},
		{
			"sampler":0,
			"source":14
		}
	],
	"images":[
		{
			"mimeType":"image/png",
			"name":"eyeball_Emission",
			"uri":"eyeball_Emission.png"
		},
		{
			"mimeType":"image/png",
			"name":"eyeball_BaseColor",
			"uri":"eyeball_BaseColor.png"
		},
		{
			"mimeType":"image/png",
			"name":"eyeball_Roughness",
			"uri":"eyeball_Roughness.png"
		},
		{
			"mimeType":"image/png",
			"name":"FlockSphereMaterial_Emission",
			"uri":"FlockSphereMaterial_Emission.png"
		},
		{
			"mimeType":"image/png",
			"name":"FlockSphereMaterial_Normal",
			"uri":"FlockSphereMaterial_Normal.png"
		},
		{
			"mimeType":"image/png",
			"name":"FlockSphereMaterial_BaseColor",
			"uri":"FlockSphereMaterial_BaseColor.png"
		},
		{
			"mimeType":"image/png",
			"name":"FlockSphereMaterial_Metallic-FlockSphereMaterial_Roughness",
			"uri":"FlockSphereMaterial_Metallic-FlockSphereMaterial_Roughness.png"
		},
		{
			"mimeType":"image/png",
			"name":"Gemstone_Emission",
			"uri":"Gemstone_Emission.png"
		},
		{
			"mimeType":"image/png",
			"name":"Gemstone_Normal",
			"uri":"Gemstone_Normal.png"
		},
		{
			"mimeType":"image/png",
			"name":"Gemstone_BaseColor-Gemstone_Alpha",
			"uri":"Gemstone_BaseColor-Gemstone_Alpha.png"
		},
		{
			"mimeType":"image/png",
			"name":"Gemstone_Metallic-Gemstone_Roughness",
			"uri":"Gemstone_Metallic-Gemstone_Roughness.png"
		},
		{
			"mimeType":"image/png",
			"name":"stone_Emission",
			"uri":"stone_Emission.png"
		},
		{
			"mimeType":"image/png",
			"name":"stone_Normal",
			"uri":"stone_Normal.png"
		},
		{
			"mimeType":"image/png",
			"name":"stone_BaseColor",
			"uri":"stone_BaseColor.png"
		},
		{
			"mimeType":"image/png",
			"name":"stone_Metallic-stone_Roughness",
			"uri":"stone_Metallic-stone_Roughness.png"
		}
	],
	"accessors":[
		{
			"bufferView":0,
			"componentType":5126,
			"count":459,
			"max":[
				1,
				0.1000000461935997,
				1
			],
			"min":[
				-1,
				-0.1000000461935997,
				-1
			],
			"type":"VEC3"
		},
		{
			"bufferView":1,
			"componentType":5126,
			"count":459,
			"type":"VEC3"
		},
		{
			"bufferView":2,
			"componentType":5126,
			"count":459,
			"type":"VEC2"
		},
		{
			"bufferView":3,
			"componentType":5126,
			"count":459,
			"type":"VEC4"
		},
		{
			"bufferView":4,
			"componentType":5123,
			"count":960,
			"type":"SCALAR"
		},
		{
			"bufferView":5,
			"componentType":5126,
			"count":441,
			"max":[
				0.5,
				0.5,
				0.5000001192092896
			],
			"min":[
				-0.5,
				-0.4999999701976776,
				-0.4999999403953552
			],
			"type":"VEC3"
		},
		{
			"bufferView":6,
			"componentType":5126,
			"count":441,
			"type":"VEC3"
		},
		{
			"bufferView":7,
			"componentType":5126,
			"count":441,
			"type":"VEC2"
		},
		{
			"bufferView":8,
			"componentType":5126,
			"count":441,
			"type":"VEC4"
		},
		{
			"bufferView":9,
			"componentType":5123,
			"count":2304,
			"type":"SCALAR"
		},
		{
			"bufferView":10,
			"componentType":5126,
			"count":1984,
			"max":[
				0.24999986588954926,
				0.2499999850988388,
				0.2499999701976776
			],
			"min":[
				-0.24999980628490448,
				-0.24999983608722687,
				-0.25
			],
			"type":"VEC3"
		},
		{
			"bufferView":11,
			"componentType":5126,
			"count":1984,
			"type":"VEC3"
		},
		{
			"bufferView":12,
			"componentType":5126,
			"count":1984,
			"type":"VEC2"
		},
		{
			"bufferView":13,
			"componentType":5126,
			"count":1984,
			"type":"VEC4"
		},
		{
			"bufferView":14,
			"componentType":5123,
			"count":2880,
			"type":"SCALAR"
		},
		{
			"bufferView":15,
			"componentType":5126,
			"count":546,
			"max":[
				0.41705322265625,
				3.307919502258301,
				0.4235517978668213
			],
			"min":[
				-0.4894773066043854,
				0.7969045639038086,
				-0.46192049980163574
			],
			"type":"VEC3"
		},
		{
			"bufferView":16,
			"componentType":5126,
			"count":546,
			"type":"VEC3"
		},
		{
			"bufferView":17,
			"componentType":5126,
			"count":546,
			"type":"VEC2"
		},
		{
			"bufferView":18,
			"componentType":5126,
			"count":546,
			"type":"VEC4"
		},
		{
			"bufferView":19,
			"componentType":5123,
			"count":552,
			"type":"SCALAR"
		},
		{
			"bufferView":20,
			"componentType":5126,
			"count":1885,
			"max":[
				0.5049824714660645,
				0.5517295002937317,
				0.505915105342865
			],
			"min":[
				-0.5005312561988831,
				-4.656612873077393e-10,
				-0.5025940537452698
			],
			"type":"VEC3"
		},
		{
			"bufferView":21,
			"componentType":5126,
			"count":1885,
			"type":"VEC3"
		},
		{
			"bufferView":22,
			"componentType":5126,
			"count":1885,
			"type":"VEC2"
		},
		{
			"bufferView":23,
			"componentType":5126,
			"count":1885,
			"type":"VEC4"
		},
		{
			"bufferView":24,
			"componentType":5123,
			"count":2553,
			"type":"SCALAR"
		},
		{
			"bufferView":25,
			"componentType":5126,
			"count":81,
			"max":[
				0.30811750888824463,
				0,
				0.30811747908592224
			],
			"min":[
				-0.30811750888824463,
				0,
				-0.30811750888824463
			],
			"type":"VEC3"
		},
		{
			"bufferView":26,
			"componentType":5126,
			"count":81,
			"type":"VEC3"
		},
		{
			"bufferView":27,
			"componentType":5126,
			"count":81,
			"type":"VEC2"
		},
		{
			"bufferView":28,
			"componentType":5126,
			"count":81,
			"type":"VEC4"
		},
		{
			"bufferView":29,
			"componentType":5123,
			"count":384,
			"type":"SCALAR"
		},
		{
			"bufferView":30,
			"componentType":5126,
			"count":128,
			"max":[
				0.405154287815094,
				0.012585699558258057,
				0.40515416860580444
			],
			"min":[
				-0.40515416860580444,
				-0.19999998807907104,
				-0.40515416860580444
			],
			"type":"VEC3"
		},
		{
			"bufferView":31,
			"componentType":5126,
			"count":128,
			"type":"VEC3"
		},
		{
			"bufferView":32,
			"componentType":5126,
			"count":128,
			"type":"VEC2"
		},
		{
			"bufferView":33,
			"componentType":5126,
			"count":128,
			"type":"VEC4"
		},
		{
			"bufferView":34,
			"componentType":5123,
			"count":192,
			"type":"SCALAR"
		},
		{
			"bufferView":35,
			"componentType":5126,
			"count":24,
			"max":[
				0.5,
				0.5,
				0.5
			],
			"min":[
				-0.5,
				-0.5,
				-0.5
			],
			"type":"VEC3"
		},
		{
			"bufferView":36,
			"componentType":5126,
			"count":24,
			"type":"VEC3"
		},
		{
			"bufferView":37,
			"componentType":5126,
			"count":24,
			"type":"VEC2"
		},
		{
			"bufferView":38,
			"componentType":5126,
			"count":24,
			"type":"VEC4"
		},
		{
			"bufferView":39,
			"componentType":5123,
			"count":36,
			"type":"SCALAR"
		},
		{
			"bufferView":40,
			"componentType":5126,
			"count":4,
			"max":[
				10,
				0,
				10
			],
			"min":[
				-10,
				0,
				-10
			],
			"type":"VEC3"
		},
		{
			"bufferView":41,
			"componentType":5126,
			"count":4,
			"type":"VEC3"
		},
		{
			"bufferView":42,
			"componentType":5126,
			"count":4,
			"type":"VEC2"
		},
		{
			"bufferView":43,
			"componentType":5126,
			"count":4,
			"type":"VEC4"
		},
		{
			"bufferView":44,
			"componentType":5123,
			"count":6,
			"type":"SCALAR"
		},
		{
			"bufferView":45,
			"componentType":5126,
			"count":1968,
			"max":[
				0.68359375,
				0.5262265801429749,
				0.5891573429107666
			],
			"min":[
				-0.68359375,
				-0.45814841985702515,
				-0.2624051570892334
			],
			"type":"VEC3"
		},
		{
			"bufferView":46,
			"componentType":5126,
			"count":1968,
			"type":"VEC3"
		},
		{
			"bufferView":47,
			"componentType":5126,
			"count":1968,
			"type":"VEC2"
		},
		{
			"bufferView":48,
			"componentType":5126,
			"count":1968,
			"type":"VEC4"
		},
		{
			"bufferView":49,
			"componentType":5123,
			"count":2904,
			"type":"SCALAR"
		},
		{
			"bufferView":50,
			"componentType":5126,
			"count":4,
			"max":[
				5,
				0,
				5
			],
			"min":[
				-5,
				0,
				-5
			],
			"type":"VEC3"
		},
		{
			"bufferView":51,
			"componentType":5126,
			"count":4,
			"type":"VEC3"
		},
		{
			"bufferView":52,
			"componentType":5126,
			"count":4,
			"type":"VEC2"
		},
		{
			"bufferView":53,
			"componentType":5126,
			"count":4,
			"type":"VEC4"
		},
		{
			"bufferView":54,
			"componentType":5126,
			"count":128,
			"max":[
				1,
				2,
				1
			],
			"min":[
				-1,
				0,
				-1
			],
			"type":"VEC3"
		},
		{
			"bufferView":55,
			"componentType":5126,
			"count":128,
			"type":"VEC3"
		},
		{
			"bufferView":56,
			"componentType":5126,
			"count":128,
			"type":"VEC2"
		},
		{
			"bufferView":57,
			"componentType":5126,
			"count":128,
			"type":"VEC4"
		}
	],
	"bufferViews":[
		{
			"buffer":0,
			"byteLength":5508,
			"byteOffset":0,
			"target":34962
		},
		{
			"buffer":0,
			"byteLength":5508,
			"byteOffset":5508,
			"target":34962
		},
		{
			"buffer":0,
			"byteLength":3672,
			"byteOffset":11016,
			"target":34962
		},
		{
			"buffer":0,
			"byteLength":7344,
			"byteOffset":14688,
			"target":34962
		},
		{
			"buffer":0,
			"byteLength":1920,
			"byteOffset":22032,
			"target":34963
		},
		{
			"buffer":0,
			"byteLength":5292,
			"byteOffset":23952,
			"target":34962
		},
		{
			"buffer":0,
			"byteLength":5292,
			"byteOffset":29244,
			"target":34962
		},
		{
			"buffer":0,
			"byteLength":3528,
			"byteOffset":34536,
			"target":34962
		},
		{
			"buffer":0,
			"byteLength":7056,
			"byteOffset":38064,
			"target":34962
		},
		{
			"buffer":0,
			"byteLength":4608,
			"byteOffset":45120,
			"target":34963
		},
		{
			"buffer":0,
			"byteLength":23808,
			"byteOffset":49728,
			"target":34962
		},
		{
			"buffer":0,
			"byteLength":23808,
			"byteOffset":73536,
			"target":34962
		},
		{
			"buffer":0,
			"byteLength":15872,
			"byteOffset":97344,
			"target":34962
		},
		{
			"buffer":0,
			"byteLength":31744,
			"byteOffset":113216,
			"target":34962
		},
		{
			"buffer":0,
			"byteLength":5760,
			"byteOffset":144960,
			"target":34963
		},
		{
			"buffer":0,
			"byteLength":6552,
			"byteOffset":150720,
			"target":34962
		},
		{
			"buffer":0,
			"byteLength":6552,
			"byteOffset":157272,
			"target":34962
		},
		{
			"buffer":0,
			"byteLength":4368,
			"byteOffset":163824,
			"target":34962
		},
		{
			"buffer":0,
			"byteLength":8736,
			"byteOffset":168192,
			"target":34962
		},
		{
			"buffer":0,
			"byteLength":1104,
			"byteOffset":176928,
			"target":34963
		},
		{
			"buffer":0,
			"byteLength":22620,
			"byteOffset":178032,
			"target":34962
		},
		{
			"buffer":0,
			"byteLength":22620,
			"byteOffset":200652,
			"target":34962
		},
		{
			"buffer":0,
			"byteLength":15080,
			"byteOffset":223272,
			"target":34962
		},
		{
			"buffer":0,
			"byteLength":30160,
			"byteOffset":238352,
			"target":34962
		},
		{
			"buffer":0,
			"byteLength":5106,
			"byteOffset":268512,
			"target":34963
		},
		{
			"buffer":0,
			"byteLength":972,
			"byteOffset":273620,
			"target":34962
		},
		{
			"buffer":0,
			"byteLength":972,
			"byteOffset":274592,
			"target":34962
		},
		{
			"buffer":0,
			"byteLength":648,
			"byteOffset":275564,
			"target":34962
		},
		{
			"buffer":0,
			"byteLength":1296,
			"byteOffset":276212,
			"target":34962
		},
		{
			"buffer":0,
			"byteLength":768,
			"byteOffset":277508,
			"target":34963
		},
		{
			"buffer":0,
			"byteLength":1536,
			"byteOffset":278276,
			"target":34962
		},
		{
			"buffer":0,
			"byteLength":1536,
			"byteOffset":279812,
			"target":34962
		},
		{
			"buffer":0,
			"byteLength":1024,
			"byteOffset":281348,
			"target":34962
		},
		{
			"buffer":0,
			"byteLength":2048,
			"byteOffset":282372,
			"target":34962
		},
		{
			"buffer":0,
			"byteLength":384,
			"byteOffset":284420,
			"target":34963
		},
		{
			"buffer":0,
			"byteLength":288,
			"byteOffset":284804,
			"target":34962
		},
		{
			"buffer":0,
			"byteLength":288,
			"byteOffset":285092,
			"target":34962
		},
		{
			"buffer":0,
			"byteLength":192,
			"byteOffset":285380,
			"target":34962
		},
		{
			"buffer":0,
			"byteLength":384,
			"byteOffset":285572,
			"target":34962
		},
		{
			"buffer":0,
			"byteLength":72,
			"byteOffset":285956,
			"target":34963
		},
		{
			"buffer":0,
			"byteLength":48,
			"byteOffset":286028,
			"target":34962
		},
		{
			"buffer":0,
			"byteLength":48,
			"byteOffset":286076,
			"target":34962
		},
		{
			"buffer":0,
			"byteLength":32,
			"byteOffset":286124,
			"target":34962
		},
		{
			"buffer":0,
			"byteLength":64,
			"byteOffset":286156,
			"target":34962
		},
		{
			"buffer":0,
			"byteLength":12,
			"byteOffset":286220,
			"target":34963
		},
		{
			"buffer":0,
			"byteLength":23616,
			"byteOffset":286232,
			"target":34962
		},
		{
			"buffer":0,
			"byteLength":23616,
			"byteOffset":309848,
			"target":34962
		},
		{
			"buffer":0,
			"byteLength":15744,
			"byteOffset":333464,
			"target":34962
		},
		{
			"buffer":0,
			"byteLength":31488,
			"byteOffset":349208,
			"target":34962
		},
		{
			"buffer":0,
			"byteLength":5808,
			"byteOffset":380696,
			"target":34963
		},
		{
			"buffer":0,
			"byteLength":48,
			"byteOffset":386504,
			"target":34962
		},
		{
			"buffer":0,
			"byteLength":48,
			"byteOffset":386552,
			"target":34962
		},
		{
			"buffer":0,
			"byteLength":32,
			"byteOffset":386600,
			"target":34962
		},
		{
			"buffer":0,
			"byteLength":64,
			"byteOffset":386632,
			"target":34962
		},
		{
			"buffer":0,
			"byteLength":1536,
			"byteOffset":386696,
			"target":34962
		},
		{
			"buffer":0,
			"byteLength":1536,
			"byteOffset":388232,
			"target":34962
		},
		{
			"buffer":0,
			"byteLength":1024,
			"byteOffset":389768,
			"target":34962
		},
		{
			"buffer":0,
			"byteLength":2048,
			"byteOffset":390792,
			"target":34962
		}
	],
	"samplers":[
		{
			"magFilter":9729,
			"minFilter":9987
		}
	],
	"buffers":[
		{
			"byteLength":392840,
			"uri":"misc.bin"
		}
	]
}
